<svg width="49" height="48" viewBox="0 0 49 48" fill="none" xmlns="http://www.w3.org/2000/svg">
<path d="M0.636364 47V0.454544H16.3636C20 0.454544 22.9848 1.07576 25.3182 2.31818C27.6515 3.54545 29.3788 5.23485 30.5 7.38636C31.6212 9.53788 32.1818 11.9848 32.1818 14.7273C32.1818 17.4697 31.6212 19.9015 30.5 22.0227C29.3788 24.1439 27.6591 25.8106 25.3409 27.0227C23.0227 28.2197 20.0606 28.8182 16.4545 28.8182H3.72727V23.7273H16.2727C18.7576 23.7273 20.7576 23.3636 22.2727 22.6364C23.803 21.9091 24.9091 20.8788 25.5909 19.5455C26.2879 18.197 26.6364 16.5909 26.6364 14.7273C26.6364 12.8636 26.2879 11.2348 25.5909 9.84091C24.8939 8.44697 23.7803 7.37121 22.25 6.61364C20.7197 5.84091 18.697 5.45454 16.1818 5.45454H6.27273V47H0.636364ZM22.5455 26.0909L34 47H27.4545L16.1818 26.0909H22.5455ZM44.7557 47.3636C43.6345 47.3636 42.6723 46.9621 41.8693 46.1591C41.0663 45.3561 40.6648 44.3939 40.6648 43.2727C40.6648 42.1515 41.0663 41.1894 41.8693 40.3864C42.6723 39.5833 43.6345 39.1818 44.7557 39.1818C45.8769 39.1818 46.839 39.5833 47.642 40.3864C48.4451 41.1894 48.8466 42.1515 48.8466 43.2727C48.8466 44.0152 48.6572 44.697 48.2784 45.3182C47.9148 45.9394 47.4223 46.4394 46.8011 46.8182C46.1951 47.1818 45.5133 47.3636 44.7557 47.3636Z" fill="#FFF8EE"/>
</svg>
